<svg width="80" height="80" viewBox="0 0 80 80" fill="none" xmlns="http://www.w3.org/2000/svg">
<rect width="80" height="80" rx="40" fill="#690510"/>
<path d="M31.9886 33.3636C31.8352 32.0682 31.2131 31.0625 30.1222 30.3466C29.0313 29.6307 27.6932 29.2727 26.108 29.2727C24.9489 29.2727 23.9347 29.4602 23.0653 29.8352C22.2045 30.2102 21.5313 30.7259 21.0455 31.3821C20.5682 32.0384 20.3295 32.7841 20.3295 33.6193C20.3295 34.3182 20.4957 34.919 20.8281 35.4219C21.169 35.9162 21.6037 36.3295 22.1321 36.6619C22.6605 36.9858 23.2145 37.2543 23.794 37.4673C24.3736 37.6719 24.9062 37.8381 25.392 37.9659L28.0511 38.6818C28.733 38.8608 29.4915 39.108 30.3267 39.4233C31.1705 39.7386 31.9759 40.169 32.7429 40.7145C33.5185 41.2514 34.1577 41.9418 34.6605 42.7855C35.1634 43.6293 35.4148 44.6648 35.4148 45.892C35.4148 47.3068 35.044 48.5852 34.3026 49.7273C33.5696 50.8693 32.4957 51.777 31.081 52.4503C29.6747 53.1236 27.9659 53.4602 25.9545 53.4602C24.0795 53.4602 22.456 53.1577 21.0838 52.5526C19.7202 51.9474 18.6463 51.1037 17.8622 50.0213C17.0866 48.9389 16.6477 47.6818 16.5455 46.25H19.8182C19.9034 47.2386 20.2358 48.0568 20.8153 48.7045C21.4034 49.3437 22.1449 49.821 23.0398 50.1364C23.9432 50.4432 24.9148 50.5966 25.9545 50.5966C27.1648 50.5966 28.2514 50.4006 29.2145 50.0085C30.1776 49.608 30.9403 49.054 31.5028 48.3466C32.0653 47.6307 32.3466 46.7955 32.3466 45.8409C32.3466 44.9716 32.1037 44.2642 31.6179 43.7188C31.1321 43.1733 30.4929 42.7301 29.7003 42.3892C28.9077 42.0483 28.0511 41.75 27.1307 41.4943L23.9091 40.5739C21.8636 39.9858 20.2443 39.1463 19.0511 38.0554C17.858 36.9645 17.2614 35.5369 17.2614 33.7727C17.2614 32.3068 17.6577 31.0284 18.4503 29.9375C19.2514 28.8381 20.3253 27.9858 21.6719 27.3807C23.027 26.767 24.5398 26.4602 26.2102 26.4602C27.8977 26.4602 29.3977 26.7628 30.7102 27.3679C32.0227 27.9645 33.0625 28.7827 33.8295 29.8224C34.6051 30.8622 35.0142 32.0426 35.0568 33.3636H31.9886ZM45.6675 53V26.8182H54.5141C56.5681 26.8182 58.247 27.1889 59.551 27.9304C60.8635 28.6634 61.8351 29.6562 62.4658 30.9091C63.0965 32.1619 63.4118 33.5597 63.4118 35.1023C63.4118 36.6449 63.0965 38.0469 62.4658 39.3082C61.8436 40.5696 60.8806 41.5753 59.5766 42.3253C58.2726 43.0668 56.6021 43.4375 54.5652 43.4375H48.2243V40.625H54.4629C55.8692 40.625 56.9985 40.3821 57.8507 39.8963C58.703 39.4105 59.3209 38.7543 59.7044 37.9276C60.0965 37.0923 60.2925 36.1506 60.2925 35.1023C60.2925 34.054 60.0965 33.1165 59.7044 32.2898C59.3209 31.4631 58.6987 30.8153 57.8379 30.3466C56.9771 29.8693 55.8351 29.6307 54.4118 29.6307H48.8379V53H45.6675Z" fill="white"/>
</svg>
